  0
SECTION
  2
HEADER
  9
$ACADVER
  1
AC1018
  9
$ACADMAINTVER
 70
     0
  9
$DWGCODEPAGE
  3
ANSI_1252
  9
$INSBASE
 10
0.0
 20
0.0
 30
0.0
  9
$EXTMIN
 10
-244.6069496778205
 20
-173.7639805496506
 30
-0.0000000000000128
  9
$EXTMAX
 10
244.6069496778219
 20
270.5383551264177
 30
0.0000000000000133
  9
$LIMMIN
 10
0.0
 20
0.0
  9
$LIMMAX
 10
12.0
 20
9.0
  9
$ORTHOMODE
 70
     0
  9
$REGENMODE
 70
     1
  9
$FILLMODE
 70
     1
  9
$QTEXTMODE
 70
     0
  9
$MIRRTEXT
 70
     1
  9
$LTSCALE
 40
1.0
  9
$ATTMODE
 70
     1
  9
$TEXTSIZE
 40
0.2
  9
$TRACEWID
 40
0.05
  9
$TEXTSTYLE
  7
Standard
  9
$CLAYER
  8
DEFAULT
  9
$CELTYPE
  6
ByLayer
  9
$CECOLOR
 62
   256
  9
$CELTSCALE
 40
1.0
  9
$DISPSILH
 70
     0
  9
$DIMSCALE
 40
1.0
  9
$DIMASZ
 40
0.18
  9
$DIMEXO
 40
0.0625
  9
$DIMDLI
 40
0.38
  9
$DIMRND
 40
0.0
  9
$DIMDLE
 40
0.0
  9
$DIMEXE
 40
0.18
  9
$DIMTP
 40
0.0
  9
$DIMTM
 40
0.0
  9
$DIMTXT
 40
0.18
  9
$DIMCEN
 40
0.09
  9
$DIMTSZ
 40
0.0
  9
$DIMTOL
 70
     0
  9
$DIMLIM
 70
     0
  9
$DIMTIH
 70
     1
  9
$DIMTOH
 70
     1
  9
$DIMSE1
 70
     0
  9
$DIMSE2
 70
     0
  9
$DIMTAD
 70
     0
  9
$DIMZIN
 70
     0
  9
$DIMBLK
  1

  9
$DIMASO
 70
     1
  9
$DIMSHO
 70
     1
  9
$DIMPOST
  1

  9
$DIMAPOST
  1

  9
$DIMALT
 70
     0
  9
$DIMALTD
 70
     2
  9
$DIMALTF
 40
25.4
  9
$DIMLFAC
 40
1.0
  9
$DIMTOFL
 70
     0
  9
$DIMTVP
 40
0.0
  9
$DIMTIX
 70
     0
  9
$DIMSOXD
 70
     0
  9
$DIMSAH
 70
     0
  9
$DIMBLK1
  1

  9
$DIMBLK2
  1

  9
$DIMSTYLE
  2
Standard
  9
$DIMCLRD
 70
     0
  9
$DIMCLRE
 70
     0
  9
$DIMCLRT
 70
     0
  9
$DIMTFAC
 40
1.0
  9
$DIMGAP
 40
0.09
  9
$DIMJUST
 70
     0
  9
$DIMSD1
 70
     0
  9
$DIMSD2
 70
     0
  9
$DIMTOLJ
 70
     1
  9
$DIMTZIN
 70
     0
  9
$DIMALTZ
 70
     0
  9
$DIMALTTZ
 70
     0
  9
$DIMUPT
 70
     0
  9
$DIMDEC
 70
     4
  9
$DIMTDEC
 70
     4
  9
$DIMALTU
 70
     2
  9
$DIMALTTD
 70
     2
  9
$DIMTXSTY
  7
Standard
  9
$DIMAUNIT
 70
     0
  9
$DIMADEC
 70
     0
  9
$DIMALTRND
 40
0.0
  9
$DIMAZIN
 70
     0
  9
$DIMDSEP
 70
    46
  9
$DIMATFIT
 70
     3
  9
$DIMFRAC
 70
     0
  9
$DIMLDRBLK
  1

  9
$DIMLUNIT
 70
     2
  9
$DIMLWD
 70
    -2
  9
$DIMLWE
 70
    -2
  9
$DIMTMOVE
 70
     2
  9
$LUNITS
 70
     2
  9
$LUPREC
 70
     2
  9
$SKETCHINC
 40
0.1
  9
$FILLETRAD
 40
0.5
  9
$AUNITS
 70
     0
  9
$AUPREC
 70
     0
  9
$MENU
  1
.
  9
$ELEVATION
 40
0.0
  9
$PELEVATION
 40
0.0
  9
$THICKNESS
 40
0.0
  9
$LIMCHECK
 70
     0
  9
$CHAMFERA
 40
0.5
  9
$CHAMFERB
 40
0.5
  9
$CHAMFERC
 40
1.0
  9
$CHAMFERD
 40
0.0
  9
$SKPOLY
 70
     0
  9
$TDCREATE
 40
2459548.710041482
  9
$TDUCREATE
 40
2459548.668374815
  9
$TDUPDATE
 40
2459548.710041493
  9
$TDUUPDATE
 40
2459548.668374826
  9
$TDINDWG
 40
0.0000000116
  9
$TDUSRTIMER
 40
0.0000000116
  9
$USRTIMER
 70
     1
  9
$ANGBASE
 50
0.0
  9
$ANGDIR
 70
     0
  9
$PDMODE
 70
     0
  9
$PDSIZE
 40
0.0
  9
$PLINEWID
 40
0.0
  9
$SPLFRAME
 70
     0
  9
$SPLINETYPE
 70
     6
  9
$SPLINESEGS
 70
     8
  9
$HANDSEED
  5
65
  9
$SURFTAB1
 70
     6
  9
$SURFTAB2
 70
     6
  9
$SURFTYPE
 70
     6
  9
$SURFU
 70
     6
  9
$SURFV
 70
     6
  9
$UCSBASE
  2

  9
$UCSNAME
  2

  9
$UCSORG
 10
0.0
 20
0.0
 30
0.0
  9
$UCSXDIR
 10
1.0
 20
0.0
 30
0.0
  9
$UCSYDIR
 10
0.0
 20
1.0
 30
0.0
  9
$UCSORTHOREF
  2

  9
$UCSORTHOVIEW
 70
     0
  9
$UCSORGTOP
 10
0.0
 20
0.0
 30
0.0
  9
$UCSORGBOTTOM
 10
0.0
 20
0.0
 30
0.0
  9
$UCSORGLEFT
 10
0.0
 20
0.0
 30
0.0
  9
$UCSORGRIGHT
 10
0.0
 20
0.0
 30
0.0
  9
$UCSORGFRONT
 10
0.0
 20
0.0
 30
0.0
  9
$UCSORGBACK
 10
0.0
 20
0.0
 30
0.0
  9
$PUCSBASE
  2

  9
$PUCSNAME
  2

  9
$PUCSORG
 10
0.0
 20
0.0
 30
0.0
  9
$PUCSXDIR
 10
1.0
 20
0.0
 30
0.0
  9
$PUCSYDIR
 10
0.0
 20
1.0
 30
0.0
  9
$PUCSORTHOREF
  2

  9
$PUCSORTHOVIEW
 70
     0
  9
$PUCSORGTOP
 10
0.0
 20
0.0
 30
0.0
  9
$PUCSORGBOTTOM
 10
0.0
 20
0.0
 30
0.0
  9
$PUCSORGLEFT
 10
0.0
 20
0.0
 30
0.0
  9
$PUCSORGRIGHT
 10
0.0
 20
0.0
 30
0.0
  9
$PUCSORGFRONT
 10
0.0
 20
0.0
 30
0.0
  9
$PUCSORGBACK
 10
0.0
 20
0.0
 30
0.0
  9
$USERI1
 70
     0
  9
$USERI2
 70
     0
  9
$USERI3
 70
     0
  9
$USERI4
 70
     0
  9
$USERI5
 70
     0
  9
$USERR1
 40
0.0
  9
$USERR2
 40
0.0
  9
$USERR3
 40
0.0
  9
$USERR4
 40
0.0
  9
$USERR5
 40
0.0
  9
$WORLDVIEW
 70
     1
  9
$SHADEDGE
 70
     3
  9
$SHADEDIF
 70
    70
  9
$TILEMODE
 70
     1
  9
$MAXACTVP
 70
    64
  9
$PINSBASE
 10
0.0
 20
0.0
 30
0.0
  9
$PLIMCHECK
 70
     0
  9
$PEXTMIN
 10
1.000000000000000E+20
 20
1.000000000000000E+20
 30
1.000000000000000E+20
  9
$PEXTMAX
 10
-1.000000000000000E+20
 20
-1.000000000000000E+20
 30
-1.000000000000000E+20
  9
$PLIMMIN
 10
0.0
 20
0.0
  9
$PLIMMAX
 10
12.0
 20
9.0
  9
$UNITMODE
 70
     0
  9
$VISRETAIN
 70
     1
  9
$PLINEGEN
 70
     0
  9
$PSLTSCALE
 70
     1
  9
$TREEDEPTH
 70
  3020
  9
$CMLSTYLE
  2
Standard
  9
$CMLJUST
 70
     0
  9
$CMLSCALE
 40
1.0
  9
$PROXYGRAPHICS
 70
     1
  9
$MEASUREMENT
 70
     0
  9
$CELWEIGHT
370
    -1
  9
$ENDCAPS
280
     0
  9
$JOINSTYLE
280
     0
  9
$LWDISPLAY
290
     0
  9
$INSUNITS
 70
     4
  9
$HYPERLINKBASE
  1

  9
$STYLESHEET
  1

  9
$XEDIT
290
     1
  9
$CEPSNTYPE
380
     0
  9
$PSTYLEMODE
290
     1
  9
$FINGERPRINTGUID
  2
{94697574-2256-4361-B7AA-AB49E4E6E78A}
  9
$VERSIONGUID
  2
{FAEB1C32-E019-11D5-929B-00C0DF256EC4}
  9
$EXTNAMES
290
     1
  9
$PSVPSCALE
 40
0.0
  9
$OLESTARTUP
290
     0
  9
$SORTENTS
280
   127
  9
$INDEXCTL
280
     0
  9
$HIDETEXT
280
     1
  9
$XCLIPFRAME
290
     0
  9
$HALOGAP
280
     0
  9
$OBSCOLOR
 70
   257
  9
$OBSLTYPE
280
     0
  9
$INTERSECTIONDISPLAY
280
     0
  9
$INTERSECTIONCOLOR
 70
   257
  9
$DIMASSOC
280
     2
  9
$PROJECTNAME
  1

  0
ENDSEC
  0
SECTION
  2
CLASSES
  0
CLASS
  1
ACDBDICTIONARYWDFLT
  2
AcDbDictionaryWithDefault
  3
ObjectDBX Classes
 90
        0
 91
        4
280
     0
281
     0
  0
CLASS
  1
VISUALSTYLE
  2
AcDbVisualStyle
  3
ObjectDBX Classes
 90
     4095
 91
        4
280
     0
281
     0
  0
ENDSEC
  0
SECTION
  2
TABLES
  0
TABLE
  2
VPORT
  5
8
330
0
100
AcDbSymbolTable
 70
     1
  0
VPORT
  5
29
330
8
100
AcDbSymbolTableRecord
100
AcDbViewportTableRecord
  2
*Active
 70
     0
 10
0.0
 20
0.0
 11
1.0
 21
1.0
 12
0.0
 22
0.0
 13
0.0
 23
0.0
 14
0.5
 24
0.5
 15
0.5
 25
0.5
 16
0.0
 26
0.0
 36
1.0
 17
0.0000000000006821
 27
48.38718728838353
 37
0.0
 40
453.1883823895897
 41
1.101083339143907
 42
50.0
 43
0.0
 44
0.0
 50
0.0
 51
0.0
 71
     0
 72
   100
 73
     1
 74
     3
 75
     0
 76
     0
 77
     0
 78
     0
281
     0
 65
     1
110
0.0
120
0.0
130
0.0
111
1.0
121
0.0
131
0.0
112
0.0
122
1.0
132
0.0
 79
     0
146
0.0
  0
ENDTAB
  0
TABLE
  2
LTYPE
  5
5
330
0
100
AcDbSymbolTable
 70
     1
  0
LTYPE
  5
14
330
5
100
AcDbSymbolTableRecord
100
AcDbLinetypeTableRecord
  2
ByBlock
 70
     0
  3

 72
    65
 73
     0
 40
0.0
  0
LTYPE
  5
15
330
5
100
AcDbSymbolTableRecord
100
AcDbLinetypeTableRecord
  2
ByLayer
 70
     0
  3

 72
    65
 73
     0
 40
0.0
  0
LTYPE
  5
16
330
5
100
AcDbSymbolTableRecord
100
AcDbLinetypeTableRecord
  2
Continuous
 70
     0
  3
Solid line
 72
    65
 73
     0
 40
0.0
  0
ENDTAB
  0
TABLE
  2
LAYER
  5
2
330
0
100
AcDbSymbolTable
 70
     2
  0
LAYER
  5
10
330
2
100
AcDbSymbolTableRecord
100
AcDbLayerTableRecord
  2
0
 70
     0
 62
     7
  6
Continuous
370
    -3
390
F
  0
LAYER
  5
3B
330
2
100
AcDbSymbolTableRecord
100
AcDbLayerTableRecord
  2
DEFAULT
 70
     0
 62
     7
  6
Continuous
370
    -3
390
F
  0
ENDTAB
  0
TABLE
  2
STYLE
  5
3
330
0
100
AcDbSymbolTable
 70
     1
  0
STYLE
  5
11
330
3
100
AcDbSymbolTableRecord
100
AcDbTextStyleTableRecord
  2
Standard
 70
     0
 40
0.0
 41
1.0
 50
0.0
 71
     0
 42
0.2
  3
txt
  4

  0
ENDTAB
  0
TABLE
  2
VIEW
  5
6
330
0
100
AcDbSymbolTable
 70
     0
  0
ENDTAB
  0
TABLE
  2
UCS
  5
7
330
0
100
AcDbSymbolTable
 70
     0
  0
ENDTAB
  0
TABLE
  2
APPID
  5
9
330
0
100
AcDbSymbolTable
 70
     1
  0
APPID
  5
12
330
9
100
AcDbSymbolTableRecord
100
AcDbRegAppTableRecord
  2
ACAD
 70
     0
  0
ENDTAB
  0
TABLE
  2
DIMSTYLE
  5
A
330
0
100
AcDbSymbolTable
 70
     1
100
AcDbDimStyleTable
  0
DIMSTYLE
105
27
330
A
100
AcDbSymbolTableRecord
100
AcDbDimStyleTableRecord
  2
Standard
 70
     0
340
11
  0
ENDTAB
  0
TABLE
  2
BLOCK_RECORD
  5
1
330
0
100
AcDbSymbolTable
 70
     1
  0
BLOCK_RECORD
  5
1F
330
1
100
AcDbSymbolTableRecord
100
AcDbBlockTableRecord
  2
*Model_Space
340
22
  0
BLOCK_RECORD
  5
1B
330
1
100
AcDbSymbolTableRecord
100
AcDbBlockTableRecord
  2
*Paper_Space
340
1E
  0
BLOCK_RECORD
  5
23
330
1
100
AcDbSymbolTableRecord
100
AcDbBlockTableRecord
  2
*Paper_Space0
340
26
  0
ENDTAB
  0
ENDSEC
  0
SECTION
  2
BLOCKS
  0
BLOCK
  5
20
330
1F
100
AcDbEntity
  8
0
100
AcDbBlockBegin
  2
*Model_Space
 70
     0
 10
0.0
 20
0.0
 30
0.0
  3
*Model_Space
  1

  0
ENDBLK
  5
21
330
1F
100
AcDbEntity
  8
0
100
AcDbBlockEnd
  0
BLOCK
  5
1C
330
1B
100
AcDbEntity
 67
     1
  8
0
100
AcDbBlockBegin
  2
*Paper_Space
 70
     0
 10
0.0
 20
0.0
 30
0.0
  3
*Paper_Space
  1

  0
ENDBLK
  5
1D
330
1B
100
AcDbEntity
 67
     1
  8
0
100
AcDbBlockEnd
  0
BLOCK
  5
24
330
23
100
AcDbEntity
  8
0
100
AcDbBlockBegin
  2
*Paper_Space0
 70
     0
 10
0.0
 20
0.0
 30
0.0
  3
*Paper_Space0
  1

  0
ENDBLK
  5
25
330
23
100
AcDbEntity
  8
0
100
AcDbBlockEnd
  0
ENDSEC
  0
SECTION
  2
ENTITIES
  0
SPLINE
  5
3C
330
1F
100
AcDbEntity
  8
DEFAULT
100
AcDbSpline
210
0.0
220
0.0
230
1.0
 70
    11
 71
     3
 72
   107
 73
   103
 74
     0
 42
0.0000000001
 43
0.0000000001
 40
0.0
 40
0.0
 40
0.0
 40
0.0
 40
3.802215775862404
 40
7.655121508162018
 40
9.490677251628892
 40
13.41779534811979
 40
24.76105517774279
 40
37.40977040392924
 40
48.6212817800303
 40
60.18415202620967
 40
70.13701044398705
 40
81.44375615006949
 40
88.20310687860072
 40
88.48180581400851
 40
88.48180581400851
 40
88.48180581400851
 40
88.7605047494163
 40
95.51985547794753
 40
106.8266011840295
 40
116.7794596018069
 40
128.3423298479867
 40
139.5538412240873
 40
152.2025564502738
 40
163.5458162798963
 40
167.4729343763877
 40
169.3084901198541
 40
173.1613958521537
 40
176.9636116280161
 40
176.9636116280161
 40
176.9636116280161
 40
336.7076954339145
 40
336.7076954339145
 40
336.7076954339145
 40
496.4517792398128
 40
496.4517792398128
 40
496.4517792398128
 40
500.2539950156752
 40
504.1069007479749
 40
505.9424564914412
 40
509.8695745879326
 40
521.2128344175552
 40
533.8615496437416
 40
545.0730610198423
 40
556.635931266022
 40
566.5887896837994
 40
577.8955353898814
 40
584.6548861184126
 40
584.9335850538205
 40
584.9335850538205
 40
584.9335850538205
 40
585.2122839892282
 40
591.9716347177595
 40
603.2783804238419
 40
613.2312388416193
 40
624.7941090877987
 40
636.0056204638997
 40
648.6543356900861
 40
659.9975955197092
 40
663.9247136162
 40
665.760269359667
 40
669.6131750919666
 40
673.4153908678289
 40
673.4153908678289
 40
673.4153908678289
 40
833.1594746737268
 40
833.1594746737268
 40
833.1594746737268
 40
992.9035584796247
 40
992.9035584796247
 40
992.9035584796247
 40
996.7057742554871
 40
1000.558679987787
 40
1002.394235731254
 40
1006.321353827744
 40
1017.664613657368
 40
1030.313328883554
 40
1041.524840259655
 40
1053.087710505834
 40
1063.040568923612
 40
1074.347314629694
 40
1081.106665358225
 40
1081.385364293633
 40
1081.385364293633
 40
1081.385364293633
 40
1081.664063229041
 40
1088.423413957572
 40
1099.730159663654
 40
1109.683018081432
 40
1121.245888327612
 40
1132.457399703712
 40
1145.106114929898
 40
1156.449374759521
 40
1160.376492856012
 40
1162.212048599479
 40
1166.064954331778
 40
1169.867170107641
 40
1169.867170107641
 40
1169.867170107641
 40
1329.611253913539
 40
1329.611253913539
 40
1329.611253913539
 40
1489.355337719438
 40
1489.355337719438
 40
1489.355337719438
 40
1489.355337719438
 10
70.61176132735443
 20
225.2228606826223
 30
0.0
 10
69.98193478795463
 20
226.3227155018361
 30
0.0
 10
68.70042910748771
 20
228.5293640340089
 30
0.0
 10
67.1244687027837
 20
231.2724461740416
 30
0.0
 10
65.50741098784601
 20
234.0400318547297
 30
0.0
 10
62.42781509913164
 20
238.8417242691914
 30
0.0
 10
56.61641829600308
 20
246.143275472489
 30
0.0
 10
47.96998184613835
 20
254.1310973505298
 30
0.0
 10
38.15681042303254
 20
260.7568991894996
 30
0.0
 10
28.25258822391231
 20
265.4087170037284
 30
0.0
 10
17.78543936904668
 20
268.6637283159225
 30
0.0
 10
8.552563214863767
 20
270.2264226564149
 30
0.0
 10
2.439066781506881
 20
270.5344278903625
 30
0.0
 10
0.0929057429642626
 20
270.538377275415
 30
0.0
 10
0.0000000000006821
 20
270.5383551264177
 30
0.0
 10
-0.0929057429628983
 20
270.538377275415
 30
0.0
 10
-2.439066781505517
 20
270.5344278903625
 30
0.0
 10
-8.552563214862403
 20
270.2264226564149
 30
0.0
 10
-17.78543936904532
 20
268.6637283159225
 30
0.0
 10
-28.25258822391095
 20
265.4087170037284
 30
0.0
 10
-38.15681042303117
 20
260.7568991894996
 30
0.0
 10
-47.96998184613699
 20
254.1310973505298
 30
0.0
 10
-56.61641829600171
 20
246.143275472489
 30
0.0
 10
-62.42781509913027
 20
238.8417242691914
 30
0.0
 10
-65.50741098784465
 20
234.0400318547297
 30
0.0
 10
-67.12446870278234
 20
231.2724461740416
 30
0.0
 10
-68.70042910748634
 20
228.5293640340089
 30
0.0
 10
-69.98193478795326
 20
226.3227155018361
 30
0.0
 10
-70.61176132735307
 20
225.2228606826223
 30
0.0
 10
-97.2355676952064
 20
179.1090753651813
 30
0.0
 10
-123.8593740630597
 20
132.9952900477402
 30
0.0
 10
-150.4831804309131
 20
86.88150473029908
 30
0.0
 10
-177.1069867965522
 20
40.76771941157966
 30
0.0
 10
-203.7307931621914
 20
-5.346065907139774
 30
0.0
 10
-230.3545995278305
 20
-51.4598512258592
 30
0.0
 10
-230.9921884720445
 20
-52.55522441856397
 30
0.0
 10
-232.2624493178963
 20
-54.76836515902877
 30
0.0
 10
-233.85004793348
 20
-57.50472797487718
 30
0.0
 10
-235.4383185826372
 20
-60.28893387574291
 30
0.0
 10
-238.0569082503628
 20
-65.35678835599053
 30
0.0
 10
-241.4745386778871
 20
-74.04038122062033
 30
0.0
 10
-244.0689771202432
 20
-85.52232577743129
 30
0.0
 10
-244.9005041216798
 20
-97.33368244101734
 30
0.0
 10
-243.9769854230188
 20
-108.2368993772956
 30
0.0
 10
-241.5623334815518
 20
-118.9292218468995
 30
0.0
 10
-238.2992284016769
 20
-127.7064743166637
 30
0.0
 10
-235.5092205420957
 20
-133.1549201508701
 30
0.0
 10
-234.3395602906091
 20
-135.1887299041435
 30
0.0
 10
-234.293088237533
 20
-135.2691775632088
 30
0.0
 10
-234.2466545476456
 20
-135.3496473712714
 30
0.0
 10
-233.0701537605895
 20
-137.3795077394923
 30
0.0
 10
-229.7466651868138
 20
-142.5199483397511
 30
0.0
 10
-223.7768941125058
 20
-149.734506469023
 30
0.0
 10
-215.7243971991072
 20
-157.1718176264327
 30
0.0
 10
-206.743693698648
 20
-163.4232167484822
 30
0.0
 10
-196.0989952741055
 20
-168.6087715730984
 30
0.0
 10
-184.8581203818848
 20
-172.1028942518686
 30
0.0
 10
-175.6290931512319
 20
-173.4849359132009
 30
0.0
 10
-169.9309075947918
 20
-173.7510979789868
 30
0.0
 10
-166.725579230697
 20
-173.7677181991643
 30
0.0
 10
-163.5620202104093
 20
-173.7609988749801
 30
0.0
 10
-161.0102536840906
 20
-173.7674910832721
 30
0.0
 10
-159.7428382004768
 20
-173.7630094567631
 30
0.0
 10
-106.4952254669843
 20
-173.7630094580415
 30
0.0
 10
-53.24761273349181
 20
-173.7630094593198
 30
0.0
 10
0.0000000000006821
 20
-173.7630094605982
 30
0.0
 10
53.24761273349316
 20
-173.7630094593198
 30
0.0
 10
106.4952254669856
 20
-173.7630094580415
 30
0.0
 10
159.7428382004781
 20
-173.7630094567632
 30
0.0
 10
161.0102536840919
 20
-173.7674910832722
 30
0.0
 10
163.5620202104107
 20
-173.7609988749802
 30
0.0
 10
166.7255792306984
 20
-173.7677181991644
 30
0.0
 10
169.9309075947932
 20
-173.7510979789869
 30
0.0
 10
175.6290931512333
 20
-173.484935913201
 30
0.0
 10
184.8581203818861
 20
-172.1028942518687
 30
0.0
 10
196.0989952741069
 20
-168.6087715730986
 30
0.0
 10
206.7436936986493
 20
-163.4232167484823
 30
0.0
 10
215.7243971991086
 20
-157.1718176264329
 30
0.0
 10
223.7768941125072
 20
-149.7345064690231
 30
0.0
 10
229.7466651868152
 20
-142.5199483397513
 30
0.0
 10
233.0701537605909
 20
-137.3795077394925
 30
0.0
 10
234.2466545476469
 20
-135.3496473712715
 30
0.0
 10
234.2930882375344
 20
-135.269177563209
 30
0.0
 10
234.3395602906105
 20
-135.1887299041437
 30
0.0
 10
235.5092205420971
 20
-133.1549201508703
 30
0.0
 10
238.2992284016783
 20
-127.7064743166638
 30
0.0
 10
241.5623334815532
 20
-118.9292218468997
 30
0.0
 10
243.9769854230202
 20
-108.2368993772958
 30
0.0
 10
244.9005041216811
 20
-97.33368244101749
 30
0.0
 10
244.0689771202445
 20
-85.52232577743143
 30
0.0
 10
241.4745386778885
 20
-74.04038122062047
 30
0.0
 10
238.0569082503642
 20
-65.35678835599067
 30
0.0
 10
235.4383185826385
 20
-60.28893387574305
 30
0.0
 10
233.8500479334814
 20
-57.50472797487731
 30
0.0
 10
232.2624493178978
 20
-54.7683651590289
 30
0.0
 10
230.992188472046
 20
-52.55522441856411
 30
0.0
 10
230.354599527832
 20
-51.45985122585933
 30
0.0
 10
203.7307931621928
 20
-5.346065907139859
 30
0.0
 10
177.1069867965536
 20
40.76771941157961
 30
0.0
 10
150.4831804309144
 20
86.88150473029908
 30
0.0
 10
123.8593740630611
 20
132.9952900477402
 30
0.0
 10
97.23556769520776
 20
179.1090753651813
 30
0.0
 10
70.61176132735443
 20
225.2228606826223
 30
0.0
  0
CIRCLE
  5
3D
330
1F
100
AcDbEntity
  8
DEFAULT
100
AcDbCircle
 10
160.0
 20
-22.00000000000002
 30
0.0
 40
4.000000000000028
  0
CIRCLE
  5
3E
330
1F
100
AcDbEntity
  8
DEFAULT
100
AcDbCircle
 10
0.0018835401711441
 20
-159.9999999999941
 30
0.0
 40
1.599999999999992
  0
CIRCLE
  5
3F
330
1F
100
AcDbEntity
  8
DEFAULT
100
AcDbCircle
 10
-127.7881164598289
 20
-159.9999999999942
 30
0.0
 40
1.599999999999966
  0
CIRCLE
  5
40
330
1F
100
AcDbEntity
  8
DEFAULT
100
AcDbCircle
 10
127.7870527715619
 20
-159.9999999999943
 30
0.0
 40
1.599999999999994
  0
CIRCLE
  5
41
330
1F
100
AcDbEntity
  8
DEFAULT
100
AcDbCircle
 10
202.4581228354196
 20
-30.66775515597913
 30
0.0
 40
1.600000000000049
  0
CIRCLE
  5
42
330
1F
100
AcDbEntity
  8
DEFAULT
100
AcDbCircle
 10
74.67053821972429
 20
190.6668339749124
 30
0.0
 40
1.600000000000021
  0
CIRCLE
  5
43
330
1F
100
AcDbEntity
  8
DEFAULT
100
AcDbCircle
 10
138.5631228354195
 20
80.00163119363425
 30
0.0
 40
1.599999999999997
  0
CIRCLE
  5
44
330
1F
100
AcDbEntity
  8
DEFAULT
100
AcDbCircle
 10
-74.67000637559063
 20
190.6677551559733
 30
0.0
 40
1.600000000000041
  0
CIRCLE
  5
45
330
1F
100
AcDbEntity
  8
DEFAULT
100
AcDbCircle
 10
-202.4575909912862
 20
-30.666833974918
 30
0.0
 40
1.599999999999978
  0
CIRCLE
  5
46
330
1F
100
AcDbEntity
  8
DEFAULT
100
AcDbCircle
 10
-138.5650063755906
 20
79.99836880635985
 30
0.0
 40
1.600000000000012
  0
SPLINE
  5
47
330
1F
100
AcDbEntity
  8
DEFAULT
100
AcDbSpline
210
0.0
220
0.0
230
1.0
 70
    15
 71
     3
 72
    41
 73
    37
 74
     0
 42
0.0000000001
 43
0.0000000001
 40
0.0
 40
0.0
 40
0.0
 40
0.0
 40
129.6231386715311
 40
129.6231386715311
 40
129.6231386715311
 40
171.4969955432277
 40
171.4969955432277
 40
171.4969955432277
 40
257.8374118149881
 40
257.8374118149881
 40
257.8374118149881
 40
299.7112723346432
 40
299.7112723346432
 40
299.7112723346432
 40
429.334411006226
 40
429.334411006226
 40
429.334411006226
 40
471.2082696949815
 40
471.2082696949815
 40
471.2082696949815
 40
557.5486859667278
 40
557.5486859667278
 40
557.5486859667278
 40
599.4225461784999
 40
599.4225461784999
 40
599.4225461784999
 40
729.0456848500297
 40
729.0456848500297
 40
729.0456848500297
 40
770.9195414065318
 40
770.9195414065318
 40
770.9195414065318
 40
857.2599576782774
 40
857.2599576782774
 40
857.2599576782774
 40
899.1338160594566
 40
899.1338160594566
 40
899.1338160594566
 40
899.1338160594566
 10
77.81122428630832
 20
-119.7622852950671
 30
0.0
 41
1.0
 10
99.41508073156281
 20
-82.34330829246042
 30
0.0
 41
1.0
 10
121.018937176816
 20
-44.92433128985611
 30
0.0
 41
1.0
 10
142.6227936220705
 20
-7.505354287249414
 30
0.0
 41
1.0
 10
149.9433016974517
 20
5.174137636544564
 30
0.0000000000000258
 41
0.9106836025294891
 10
149.9433016977308
 20
19.81515378732017
 30
-0.0000000000000058
 41
0.9106836025294892
 10
142.6227936228332
 20
32.49464571139293
 30
0.0
 41
1.0
 10
128.2327242451701
 20
57.41897700017174
 30
0.0
 41
1.0
 10
113.8426548675091
 20
82.34330828894696
 30
0.0
 41
1.0
 10
99.45258548984594
 20
107.267639577726
 30
0.0
 41
1.0
 10
92.13207741434736
 20
119.9471315028215
 30
0.0000000000000314
 41
0.9106836025166212
 10
79.45258548966962
 20
127.2676395790432
 30
-0.0000000000000003
 41
0.9106836025166213
 10
64.81156933770833
 20
127.2676395790439
 30
0.0
 41
1.0
 10
21.60385644718075
 20
127.2676395790439
 30
0.0
 41
1.0
 10
-21.603856443345
 20
127.2676395790439
 30
0.0
 41
1.0
 10
-64.8115693338726
 20
127.2676395790446
 30
0.0
 41
1.0
 10
-79.45258548465335
 20
127.2676395790349
 30
-0.00000000000004
 41
0.910683602529435
 10
-92.13207740858537
 20
119.9471315038823
 30
0.0000000000000251
 41
0.9106836025294349
 10
-99.45258548446029
 20
107.2676395803671
 30
0.0
 41
1.0
 10
-113.8426548640361
 20
82.34330829269805
 30
0.0
 41
1.0
 10
-128.2327242436097
 20
57.4189770050331
 30
0.0
 41
1.0
 10
-142.6227936231855
 20
32.49464571736395
 30
0.0
 41
1.0
 10
-149.9433016996618
 20
19.81515379282115
 30
0.0000000000000215
 41
0.9106836025165096
 10
-149.9433016999447
 20
5.174137640849346
 30
-0.0000000000000103
 41
0.9106836025165104
 10
-142.6227936239587
 20
-7.505354283976313
 30
0.0
 41
1.0
 10
-121.0189371787031
 20
-44.92433128658192
 30
0.0
 41
1.0
 10
-99.41508073344822
 20
-82.3433082891864
 30
0.0
 41
1.0
 10
-77.81122428819268
 20
-119.762285291792
 30
0.0
 41
1.0
 10
-70.4907162127953
 20
-132.4417772155819
 30
-0.0000000000000319
 41
0.9106836025294396
 10
-57.8112242891396
 20
-139.7622852912113
 30
0.0000000000000202
 41
0.9106836025294394
 10
-43.17020813835971
 20
-139.7622852917723
 30
0.0
 41
1.0
 10
-14.39006938111139
 20
-139.762285292878
 30
0.0
 41
1.0
 10
14.39006937613285
 20
-139.7622852939837
 30
0.0
 41
1.0
 10
43.17020813338095
 20
-139.7622852950894
 30
0.0
 41
1.0
 10
57.81122428535848
 20
-139.762285295652
 30
-0.0000000000000016
 41
0.9106836025164486
 10
70.49071621032752
 20
-132.4417772199028
 30
0.0000000000000132
 41
0.9106836025164489
 10
77.81122428630832
 20
-119.7622852950671
 30
0.0
 41
1.0
  0
CIRCLE
  5
48
330
1F
100
AcDbEntity
  8
DEFAULT
100
AcDbCircle
 10
158.849516398817
 20
-53.48447600677449
 30
0.0
 40
1.6
  0
CIRCLE
  5
49
330
1F
100
AcDbEntity
  8
DEFAULT
100
AcDbCircle
 10
109.8468202521144
 20
-86.95963544072305
 30
0.0
 40
1.600000000000015
  0
CIRCLE
  5
4A
330
1F
100
AcDbEntity
  8
DEFAULT
100
AcDbCircle
 10
132.1036731293744
 20
-99.80963544072306
 30
0.0
 40
1.60000000000002
  0
CIRCLE
  5
4B
330
1F
100
AcDbEntity
  8
DEFAULT
100
AcDbCircle
 10
136.5926635215569
 20
-40.63447600677459
 30
0.0
 40
1.6
  0
CIRCLE
  5
4C
330
1F
100
AcDbEntity
  8
DEFAULT
100
AcDbCircle
 10
-125.7436731293745
 20
-110.8254785768611
 30
0.0
 40
1.600000000000035
  0
CIRCLE
  5
4D
330
1F
100
AcDbEntity
  8
DEFAULT
100
AcDbCircle
 10
-130.2326635215569
 20
-51.65031914291255
 30
0.0
 40
1.600000000000054
  0
CIRCLE
  5
4E
330
1F
100
AcDbEntity
  8
DEFAULT
100
AcDbCircle
 10
-152.489516398817
 20
-64.50031914291249
 30
0.0
 40
1.600000000000015
  0
CIRCLE
  5
4F
330
1F
100
AcDbEntity
  8
DEFAULT
100
AcDbCircle
 10
-103.4868202521145
 20
-97.97547857686102
 30
0.0
 40
1.600000000000037
  0
CIRCLE
  5
50
330
1F
100
AcDbEntity
  8
DEFAULT
100
AcDbCircle
 10
-33.10584326944257
 20
164.3099545836355
 30
0.0
 40
1.599999999999994
  0
CIRCLE
  5
51
330
1F
100
AcDbEntity
  8
DEFAULT
100
AcDbCircle
 10
20.38584326944249
 20
138.6099545836355
 30
0.0
 40
1.599999999999994
  0
CIRCLE
  5
52
330
1F
100
AcDbEntity
  8
DEFAULT
100
AcDbCircle
 10
20.38584326944249
 20
164.3099545836355
 30
0.0
 40
1.599999999999998
  0
CIRCLE
  5
53
330
1F
100
AcDbEntity
  8
DEFAULT
100
AcDbCircle
 10
-33.1058432694425
 20
138.6099545836355
 30
0.0
 40
1.600000000000009
  0
CIRCLE
  5
54
330
1F
100
AcDbEntity
  8
DEFAULT
100
AcDbCircle
 10
186.4272303332679
 20
-107.6338116171888
 30
0.0
 40
2.60000000000002
  0
CIRCLE
  5
55
330
1F
100
AcDbEntity
  8
DEFAULT
100
AcDbCircle
 10
211.7494316795029
 20
-152.1803521346142
 30
0.0
 40
2.599999999999965
  0
CIRCLE
  5
56
330
1F
100
AcDbEntity
  8
DEFAULT
100
AcDbCircle
 10
160.3297740449549
 20
-152.8352384621542
 30
0.0
 40
2.599999999999989
  0
CIRCLE
  5
57
330
1F
100
AcDbEntity
  8
DEFAULT
100
AcDbCircle
 10
212.524086124156
 20
-62.4320380748736
 30
0.0
 40
2.599999999999977
  0
CIRCLE
  5
58
330
1F
100
AcDbEntity
  8
DEFAULT
100
AcDbCircle
 10
237.6667667451885
 20
-107.2902110040611
 30
0.0
 40
2.599999999999999
  0
CIRCLE
  5
59
330
1F
100
AcDbEntity
  8
DEFAULT
100
AcDbCircle
 10
-186.4272303332681
 20
-107.6338116171885
 30
0.0
 40
2.599999999999997
  0
CIRCLE
  5
5A
330
1F
100
AcDbEntity
  8
DEFAULT
100
AcDbCircle
 10
-237.6667667451887
 20
-107.2902110040598
 30
0.0
 40
2.600000000000009
  0
CIRCLE
  5
5B
330
1F
100
AcDbEntity
  8
DEFAULT
100
AcDbCircle
 10
-212.5240861241554
 20
-62.43203807487273
 30
0.0
 40
2.599999999999989
  0
CIRCLE
  5
5C
330
1F
100
AcDbEntity
  8
DEFAULT
100
AcDbCircle
 10
-160.3297740449558
 20
-152.8352384621543
 30
0.0
 40
2.599999999999989
  0
CIRCLE
  5
5D
330
1F
100
AcDbEntity
  8
DEFAULT
100
AcDbCircle
 10
-211.7494316795039
 20
-152.1803521346134
 30
0.0
 40
2.600000000000039
  0
CIRCLE
  5
5E
330
1F
100
AcDbEntity
  8
DEFAULT
100
AcDbCircle
 10
-25.91733506568471
 20
259.4705631386744
 30
0.0
 40
2.600000000000012
  0
CIRCLE
  5
5F
330
1F
100
AcDbEntity
  8
DEFAULT
100
AcDbCircle
 10
-52.19431207920029
 20
215.2672765370278
 30
0.0
 40
2.599999999999973
  0
CIRCLE
  5
60
330
1F
100
AcDbEntity
  8
DEFAULT
100
AcDbCircle
 10
25.91733506568575
 20
259.470563138674
 30
0.0
 40
2.600000000000012
  0
CIRCLE
  5
61
330
1F
100
AcDbEntity
  8
DEFAULT
100
AcDbCircle
 10
52.19431207920059
 20
215.2672765370269
 30
0.0
 40
2.599999999999994
  0
CIRCLE
  5
62
330
1F
100
AcDbEntity
  8
DEFAULT
100
AcDbCircle
 10
0.0000000000001674
 20
215.2676232343772
 30
0.0
 40
2.600000000000009
  0
ENDSEC
  0
SECTION
  2
OBJECTS
  0
DICTIONARY
  5
C
330
0
100
AcDbDictionary
281
     1
  3
ACAD_GROUP
350
D
  3
ACAD_LAYOUT
350
1A
  3
ACAD_MLEADERSTYLE
350
64
  3
ACAD_MLINESTYLE
350
17
  3
ACAD_PLOTSETTINGS
350
19
  3
ACAD_PLOTSTYLENAME
350
E
  3
ACAD_TABLESTYLE
350
63
  3
ACAD_VISUALSTYLE
350
2A
  0
DICTIONARY
  5
D
102
{ACAD_REACTORS
330
C
102
}
330
C
100
AcDbDictionary
281
     1
  0
DICTIONARY
  5
1A
102
{ACAD_REACTORS
330
C
102
}
330
C
100
AcDbDictionary
281
     1
  3
Layout1
350
1E
  3
Layout2
350
26
  3
Model
350
22
  0
DICTIONARY
  5
64
102
{ACAD_REACTORS
330
C
102
}
330
C
100
AcDbDictionary
281
     1
  0
DICTIONARY
  5
17
102
{ACAD_REACTORS
330
C
102
}
330
C
100
AcDbDictionary
281
     1
  3
Standard
350
18
  0
DICTIONARY
  5
19
102
{ACAD_REACTORS
330
C
102
}
330
C
100
AcDbDictionary
281
     1
  0
ACDBDICTIONARYWDFLT
  5
E
102
{ACAD_REACTORS
330
C
102
}
330
C
100
AcDbDictionary
281
     1
  3
Normal
350
F
100
AcDbDictionaryWithDefault
340
F
  0
DICTIONARY
  5
63
102
{ACAD_REACTORS
330
C
102
}
330
C
100
AcDbDictionary
281
     1
  0
DICTIONARY
  5
2A
102
{ACAD_REACTORS
330
C
102
}
330
C
100
AcDbDictionary
281
     1
  3
2dWireframe
350
2F
  3
3D Hidden
350
31
  3
3dWireframe
350
30
  3
Basic
350
32
  3
Brighten
350
36
  3
ColorChange
350
3A
  3
Conceptual
350
34
  3
Dim
350
35
  3
Facepattern
350
39
  3
Flat
350
2B
  3
FlatWithEdges
350
2C
  3
Gouraud
350
2D
  3
GouraudWithEdges
350
2E
  3
Linepattern
350
38
  3
Realistic
350
33
  3
Thicken
350
37
  0
LAYOUT
  5
1E
102
{ACAD_REACTORS
330
1A
102
}
330
1A
100
AcDbPlotSettings
  1

  2
none_device
  4

  6

 40
0.0
 41
0.0
 42
0.0
 43
0.0
 44
0.0
 45
0.0
 46
0.0
 47
0.0
 48
0.0
 49
0.0
140
0.0
141
0.0
142
1.0
143
1.0
 70
   688
 72
     0
 73
     0
 74
     5
  7

 75
    16
 76
     0
 77
     2
 78
   300
147
1.0
148
0.0
149
0.0
100
AcDbLayout
  1
Layout1
 70
     1
 71
     1
 10
0.0
 20
0.0
 11
12.0
 21
9.0
 12
0.0
 22
0.0
 32
0.0
 14
1.000000000000000E+20
 24
1.000000000000000E+20
 34
1.000000000000000E+20
 15
-1.000000000000000E+20
 25
-1.000000000000000E+20
 35
-1.000000000000000E+20
146
0.0
 13
0.0
 23
0.0
 33
0.0
 16
1.0
 26
0.0
 36
0.0
 17
0.0
 27
1.0
 37
0.0
 76
     0
330
1B
  0
LAYOUT
  5
26
102
{ACAD_REACTORS
330
1A
102
}
330
1A
100
AcDbPlotSettings
  1

  2
none_device
  4

  6

 40
0.0
 41
0.0
 42
0.0
 43
0.0
 44
0.0
 45
0.0
 46
0.0
 47
0.0
 48
0.0
 49
0.0
140
0.0
141
0.0
142
1.0
143
1.0
 70
   688
 72
     0
 73
     0
 74
     5
  7

 75
    16
 76
     0
 77
     2
 78
   300
147
1.0
148
0.0
149
0.0
100
AcDbLayout
  1
Layout2
 70
     1
 71
     2
 10
0.0
 20
0.0
 11
0.0
 21
0.0
 12
0.0
 22
0.0
 32
0.0
 14
0.0
 24
0.0
 34
0.0
 15
0.0
 25
0.0
 35
0.0
146
0.0
 13
0.0
 23
0.0
 33
0.0
 16
1.0
 26
0.0
 36
0.0
 17
0.0
 27
1.0
 37
0.0
 76
     0
330
23
  0
LAYOUT
  5
22
102
{ACAD_REACTORS
330
1A
102
}
330
1A
100
AcDbPlotSettings
  1

  2
none_device
  4

  6

 40
0.0
 41
0.0
 42
0.0
 43
0.0
 44
0.0
 45
0.0
 46
0.0
 47
0.0
 48
0.0
 49
0.0
140
0.0
141
0.0
142
1.0
143
1.0
 70
  1712
 72
     0
 73
     0
 74
     0
  7

 75
     0
 76
     0
 77
     2
 78
   300
147
1.0
148
0.0
149
0.0
100
AcDbLayout
  1
Model
 70
     1
 71
     0
 10
0.0
 20
0.0
 11
12.0
 21
9.0
 12
0.0
 22
0.0
 32
0.0
 14
-244.6069496778205
 24
-173.7639805496506
 34
-0.0000000000000128
 15
244.6069496778219
 25
270.5383551264177
 35
0.0000000000000133
146
0.0
 13
0.0
 23
0.0
 33
0.0
 16
1.0
 26
0.0
 36
0.0
 17
0.0
 27
1.0
 37
0.0
 76
     0
330
1F
331
29
  0
MLINESTYLE
  5
18
102
{ACAD_REACTORS
330
17
102
}
330
17
100
AcDbMlineStyle
  2
Standard
 70
     0
  3

 62
   256
 51
90.0
 52
90.0
 71
     2
 49
0.5
 62
   256
  6
BYLAYER
 49
-0.5
 62
   256
  6
BYLAYER
  0
ACDBPLACEHOLDER
  5
F
102
{ACAD_REACTORS
330
E
102
}
330
E
  0
VISUALSTYLE
  5
2F
102
{ACAD_REACTORS
330
2A
102
}
330
2A
100
AcDbVisualStyle
  2
2dWireframe
 70
     4
 71
     0
 72
     2
 73
     0
 90
        0
 40
-0.6
 41
-30.0
 62
     5
 63
     7
421
 16777215
 74
     1
 91
        4
 64
     7
 65
   257
 75
     1
175
     1
 42
1.0
 92
        0
 66
   257
 43
1.0
 76
     1
 77
     6
 78
     2
 67
     7
 79
     5
170
     0
171
     0
290
     0
174
     0
 93
        1
 44
0.0
173
     0
291
     0
 45
0.0
1001
ACAD
1000
AcDbSavedByObjectVersion
1070
     0
  0
VISUALSTYLE
  5
31
102
{ACAD_REACTORS
330
2A
102
}
330
2A
100
AcDbVisualStyle
  2
3D Hidden
 70
     6
 71
     1
 72
     2
 73
     2
 90
        0
 40
-0.6
 41
-30.0
 62
     5
 63
     7
421
 16777215
 74
     2
 91
        2
 64
     7
 65
   257
 75
     2
175
     1
 42
40.0
 92
        0
 66
   257
 43
1.0
 76
     1
 77
     6
 78
     2
 67
     7
 79
     3
170
     0
171
     0
290
     0
174
     0
 93
        1
 44
0.0
173
     0
291
     0
 45
0.0
1001
ACAD
1000
AcDbSavedByObjectVersion
1070
     0
  0
VISUALSTYLE
  5
30
102
{ACAD_REACTORS
330
2A
102
}
330
2A
100
AcDbVisualStyle
  2
3dWireframe
 70
     5
 71
     0
 72
     2
 73
     0
 90
        0
 40
-0.6
 41
-30.0
 62
     5
 63
     7
421
 16777215
 74
     1
 91
        4
 64
     7
 65
   257
 75
     1
175
     1
 42
1.0
 92
        0
 66
   257
 43
1.0
 76
     1
 77
     6
 78
     2
 67
     7
 79
     5
170
     0
171
     0
290
     0
174
     0
 93
        1
 44
0.0
173
     0
291
     0
 45
0.0
1001
ACAD
1000
AcDbSavedByObjectVersion
1070
     0
  0
VISUALSTYLE
  5
32
102
{ACAD_REACTORS
330
2A
102
}
330
2A
100
AcDbVisualStyle
  2
Basic
 70
     7
 71
     1
 72
     0
 73
     1
 90
        0
 40
-0.6
 41
-30.0
 62
     5
 63
     7
421
 16777215
 74
     0
 91
        4
 64
     7
 65
   257
 75
     1
175
     1
 42
1.0
 92
        8
 66
     7
 43
1.0
 76
     1
 77
     6
 78
     2
 67
     7
 79
     5
170
     0
171
     0
290
     0
174
     0
 93
        1
 44
0.0
173
     0
291
     1
 45
0.0
1001
ACAD
1000
AcDbSavedByObjectVersion
1070
     0
  0
VISUALSTYLE
  5
36
102
{ACAD_REACTORS
330
2A
102
}
330
2A
100
AcDbVisualStyle
  2
Brighten
 70
    12
 71
     2
 72
     2
 73
     0
 90
        0
 40
-0.6
 41
-30.0
 62
     5
 63
     7
421
 16777215
 74
     1
 91
        4
 64
     7
 65
   257
 75
     1
175
     1
 42
1.0
 92
        8
 66
     7
 43
1.0
 76
     1
 77
     6
 78
     2
 67
     7
 79
     5
170
     0
171
     0
290
     0
174
     0
 93
        1
 44
50.0
173
     0
291
     1
 45
0.0
1001
ACAD
1000
AcDbSavedByObjectVersion
1070
     0
  0
VISUALSTYLE
  5
3A
102
{ACAD_REACTORS
330
2A
102
}
330
2A
100
AcDbVisualStyle
  2
ColorChange
 70
    16
 71
     2
 72
     2
 73
     3
 90
        0
 40
-0.6
 41
-30.0
 62
     5
 63
     8
421
  8421504
 74
     1
 91
        4
 64
     7
 65
   257
 75
     1
175
     1
 42
1.0
 92
        8
 66
     8
424
  8421504
 43
1.0
 76
     1
 77
     6
 78
     2
 67
     7
 79
     5
170
     0
171
     0
290
     0
174
     0
 93
        1
 44
0.0
173
     0
291
     1
 45
0.0
1001
ACAD
1000
AcDbSavedByObjectVersion
1070
     0
  0
VISUALSTYLE
  5
34
102
{ACAD_REACTORS
330
2A
102
}
330
2A
100
AcDbVisualStyle
  2
Conceptual
 70
     9
 71
     3
 72
     2
 73
     0
 90
        0
 40
-0.6
 41
-30.0
 62
     5
 63
     7
421
 16777215
 74
     2
 91
        2
 64
     7
 65
   257
 75
     1
175
     1
 42
40.0
 92
        8
 66
     7
 43
1.0
 76
     1
 77
     6
 78
     2
 67
     7
 79
     3
170
     0
171
     0
290
     0
174
     0
 93
        1
 44
0.0
173
     0
291
     0
 45
0.0
1001
ACAD
1000
AcDbSavedByObjectVersion
1070
     0
  0
VISUALSTYLE
  5
35
102
{ACAD_REACTORS
330
2A
102
}
330
2A
100
AcDbVisualStyle
  2
Dim
 70
    11
 71
     2
 72
     2
 73
     0
 90
        0
 40
-0.6
 41
-30.0
 62
     5
 63
     7
421
 16777215
 74
     1
 91
        4
 64
     7
 65
   257
 75
     1
175
     1
 42
1.0
 92
        8
 66
     7
 43
1.0
 76
     1
 77
     6
 78
     2
 67
     7
 79
     5
170
     0
171
     0
290
     0
174
     0
 93
        1
 44
-50.0
173
     0
291
     1
 45
0.0
1001
ACAD
1000
AcDbSavedByObjectVersion
1070
     0
  0
VISUALSTYLE
  5
39
102
{ACAD_REACTORS
330
2A
102
}
330
2A
100
AcDbVisualStyle
  2
Facepattern
 70
    15
 71
     2
 72
     2
 73
     0
 90
        0
 40
-0.6
 41
-30.0
 62
     5
 63
     7
421
 16777215
 74
     1
 91
        4
 64
     7
 65
   257
 75
     1
175
     1
 42
1.0
 92
        8
 66
     7
 43
1.0
 76
     1
 77
     6
 78
     2
 67
     7
 79
     5
170
     0
171
     0
290
     0
174
     0
 93
        1
 44
0.0
173
     0
291
     1
 45
0.0
1001
ACAD
1000
AcDbSavedByObjectVersion
1070
     0
  0
VISUALSTYLE
  5
2B
102
{ACAD_REACTORS
330
2A
102
}
330
2A
100
AcDbVisualStyle
  2
Flat
 70
     0
 71
     2
 72
     1
 73
     1
 90
        2
 40
-0.6
 41
30.0
 62
     5
 63
     7
421
 16777215
 74
     0
 91
        4
 64
     7
 65
   257
 75
     1
175
     1
 42
1.0
 92
        8
 66
     7
 43
1.0
 76
     1
 77
     6
 78
     2
 67
     7
 79
     5
170
     0
171
     0
290
     0
174
     0
 93
       13
 44
0.0
173
     0
291
     1
 45
0.0
1001
ACAD
1000
AcDbSavedByObjectVersion
1070
     0
  0
VISUALSTYLE
  5
2C
102
{ACAD_REACTORS
330
2A
102
}
330
2A
100
AcDbVisualStyle
  2
FlatWithEdges
 70
     1
 71
     2
 72
     1
 73
     1
 90
        2
 40
-0.6
 41
30.0
 62
     5
 63
     7
421
 16777215
 74
     1
 91
        4
 64
     7
 65
   257
 75
     1
175
     1
 42
1.0
 92
        0
 66
   257
 43
1.0
 76
     1
 77
     6
 78
     2
 67
     7
 79
     5
170
     0
171
     0
290
     0
174
     0
 93
       13
 44
0.0
173
     0
291
     1
 45
0.0
1001
ACAD
1000
AcDbSavedByObjectVersion
1070
     0
  0
VISUALSTYLE
  5
2D
102
{ACAD_REACTORS
330
2A
102
}
330
2A
100
AcDbVisualStyle
  2
Gouraud
 70
     2
 71
     2
 72
     2
 73
     1
 90
        2
 40
-0.6
 41
30.0
 62
     5
 63
     7
421
 16777215
 74
     0
 91
        4
 64
     7
 65
   257
 75
     1
175
     1
 42
1.0
 92
        0
 66
     7
 43
1.0
 76
     1
 77
     6
 78
     2
 67
     7
 79
     5
170
     0
171
     0
290
     0
174
     0
 93
       13
 44
0.0
173
     0
291
     1
 45
0.0
1001
ACAD
1000
AcDbSavedByObjectVersion
1070
     0
  0
VISUALSTYLE
  5
2E
102
{ACAD_REACTORS
330
2A
102
}
330
2A
100
AcDbVisualStyle
  2
GouraudWithEdges
 70
     3
 71
     2
 72
     2
 73
     1
 90
        2
 40
-0.6
 41
30.0
 62
     5
 63
     7
421
 16777215
 74
     1
 91
        4
 64
     7
 65
   257
 75
     1
175
     1
 42
1.0
 92
        0
 66
   257
 43
1.0
 76
     1
 77
     6
 78
     2
 67
     7
 79
     5
170
     0
171
     0
290
     0
174
     0
 93
       13
 44
0.0
173
     0
291
     1
 45
0.0
1001
ACAD
1000
AcDbSavedByObjectVersion
1070
     0
  0
VISUALSTYLE
  5
38
102
{ACAD_REACTORS
330
2A
102
}
330
2A
100
AcDbVisualStyle
  2
Linepattern
 70
    14
 71
     2
 72
     2
 73
     0
 90
        0
 40
-0.6
 41
-30.0
 62
     5
 63
     7
421
 16777215
 74
     1
 91
        4
 64
     7
 65
   257
 75
     7
175
     7
 42
1.0
 92
        8
 66
     7
 43
1.0
 76
     1
 77
     6
 78
     2
 67
     7
 79
     5
170
     0
171
     0
290
     0
174
     0
 93
        1
 44
0.0
173
     0
291
     1
 45
0.0
1001
ACAD
1000
AcDbSavedByObjectVersion
1070
     0
  0
VISUALSTYLE
  5
33
102
{ACAD_REACTORS
330
2A
102
}
330
2A
100
AcDbVisualStyle
  2
Realistic
 70
     8
 71
     2
 72
     2
 73
     0
 90
        0
 40
-0.6
 41
-30.0
 62
     5
 63
     7
421
 16777215
 74
     1
 91
        0
 64
     7
 65
   257
 75
     1
175
     1
 42
1.0
 92
        8
 66
     8
424
  7895160
 43
1.0
 76
     1
 77
     6
 78
     2
 67
     7
 79
     5
170
     0
171
     0
290
     0
174
     0
 93
       13
 44
0.0
173
     0
291
     0
 45
0.0
1001
ACAD
1000
AcDbSavedByObjectVersion
1070
     0
  0
VISUALSTYLE
  5
37
102
{ACAD_REACTORS
330
2A
102
}
330
2A
100
AcDbVisualStyle
  2
Thicken
 70
    13
 71
     2
 72
     2
 73
     0
 90
        0
 40
-0.6
 41
-30.0
 62
     5
 63
     7
421
 16777215
 74
     1
 91
        4
 64
     7
 65
   257
 75
     1
175
     1
 42
1.0
 92
       12
 66
     7
 43
1.0
 76
     1
 77
     6
 78
     2
 67
     7
 79
     5
170
     0
171
     0
290
     0
174
     0
 93
        1
 44
0.0
173
     0
291
     1
 45
0.0
1001
ACAD
1000
AcDbSavedByObjectVersion
1070
     0
  0
ENDSEC
  0
EOF
